<?xml version="1.0" encoding="UTF-8" standalone="no"?><!DOCTYPE svg PUBLIC "-//W3C//DTD SVG 1.1//EN" "http://www.w3.org/Graphics/SVG/1.1/DTD/svg11.dtd"><svg width="100%" height="100%" viewBox="0 0 707 152" version="1.1" xmlns="http://www.w3.org/2000/svg" xmlns:xlink="http://www.w3.org/1999/xlink" xml:space="preserve" xmlns:serif="http://www.serif.com/" style="fill-rule:evenodd;clip-rule:evenodd;stroke-linejoin:round;stroke-miterlimit:2;"><path d="M70.342,-0c0.513,13.172 5.147,26.346 13.259,39.52c0.147,0.384 0.333,0.758 0.56,1.118c14.726,23.352 16.748,46.704 0.191,70.056c-0.244,0.343 -0.449,0.703 -0.615,1.074c-9.152,13.281 -13.413,26.562 -13.443,39.845c-39.287,-2.931 -70.294,-35.775 -70.294,-75.805c0,-40.046 31.033,-72.901 70.342,-75.808Zm12.895,0.13c5.007,0.472 9.873,1.431 14.548,2.828c1.916,10.244 5.858,20.489 11.575,30.734c0.068,0.28 0.175,0.556 0.324,0.819c15.589,27.485 17.612,54.969 0.085,82.454c-0.161,0.252 -0.282,0.518 -0.364,0.791c-6.466,10.343 -10.395,20.685 -12.045,31.028c-4.564,1.334 -9.306,2.252 -14.182,2.708c0.07,-11.157 3.74,-22.312 11.649,-33.468c0.244,-0.344 0.448,-0.703 0.614,-1.074c18.826,-27.316 16.958,-54.635 0.137,-81.955c-0.147,-0.383 -0.333,-0.758 -0.56,-1.118c-7.094,-11.248 -11.239,-22.497 -11.781,-33.747Zm21.599,5.322c5.512,2.263 10.7,5.155 15.479,8.589c1.601,4.272 3.458,8.547 5.554,12.822c0.012,0.205 0.065,0.41 0.162,0.605c15.963,32.204 17.984,64.409 0.035,96.613c-0.104,0.188 -0.167,0.388 -0.19,0.589c-2.458,4.47 -4.546,8.94 -6.278,13.414c-4.73,3.318 -9.855,6.111 -15.288,8.294c1.827,-8.668 5.41,-17.337 10.938,-26.006c0.161,-0.252 0.282,-0.518 0.364,-0.791c18.209,-29.127 16.297,-58.252 0.045,-87.377c-0.068,-0.281 -0.175,-0.556 -0.324,-0.819c-4.903,-8.644 -8.464,-17.288 -10.497,-25.933Zm20.438,12.473c16.371,13.947 26.761,34.711 26.761,57.883c-0,23.466 -10.655,44.462 -27.384,58.408c1.286,-2.867 2.724,-5.73 4.319,-8.593c0.105,-0.188 0.168,-0.388 0.191,-0.589c18.033,-32.792 16.086,-65.579 0.007,-98.368c-0.013,-0.205 -0.065,-0.41 -0.162,-0.605c-1.344,-2.712 -2.589,-5.423 -3.732,-8.136Z" style="fill:#b8144b;"/><g transform="matrix(4.16667,0,0,4.16667,-656.203,-1577.42)"><g transform="matrix(24,0,0,24,202.566,405.234)"><path d="M0.648,-0.099c0.01,0.015 0.015,0.029 0.015,0.043c0,0.019 -0.008,0.034 -0.023,0.046c-0.014,0.012 -0.032,0.018 -0.052,0.018c-0.013,0 -0.025,-0.003 -0.037,-0.009c-0.012,-0.006 -0.022,-0.015 -0.03,-0.028l-0.132,-0.196c-0.011,-0.017 -0.023,-0.03 -0.036,-0.038c-0.013,-0.007 -0.029,-0.011 -0.048,-0.011l-0.081,0l0,0.202c0,0.024 -0.007,0.043 -0.02,0.057c-0.014,0.014 -0.033,0.021 -0.056,0.021c-0.024,0 -0.043,-0.007 -0.057,-0.021c-0.014,-0.014 -0.021,-0.033 -0.021,-0.057l0,-0.56c0,-0.023 0.006,-0.041 0.019,-0.054c0.013,-0.013 0.031,-0.019 0.054,-0.019l0.251,0c0.083,0 0.145,0.018 0.188,0.055c0.042,0.036 0.063,0.088 0.063,0.157c0,0.054 -0.015,0.099 -0.045,0.135c-0.03,0.036 -0.072,0.06 -0.127,0.071c0.02,0.004 0.038,0.012 0.054,0.024c0.015,0.011 0.03,0.028 0.045,0.05l0.076,0.114Zm-0.277,-0.293c0.045,0 0.077,-0.008 0.097,-0.023c0.02,-0.016 0.03,-0.041 0.03,-0.074c0,-0.034 -0.01,-0.059 -0.03,-0.074c-0.02,-0.015 -0.052,-0.023 -0.097,-0.023l-0.149,0l0,0.194l0.149,0Z" style="fill:#b8144b;fill-rule:nonzero;"/></g><g transform="matrix(24,0,0,24,219.39,405.234)"><path d="M0.143,-0c-0.023,-0 -0.041,-0.006 -0.054,-0.019c-0.013,-0.013 -0.019,-0.031 -0.019,-0.054l-0,-0.559c-0,-0.023 0.006,-0.041 0.019,-0.054c0.013,-0.013 0.031,-0.019 0.054,-0.019l0.354,0c0.049,0 0.074,0.02 0.074,0.06c0,0.041 -0.025,0.061 -0.074,0.061l-0.275,0l0,0.165l0.255,0c0.049,0 0.074,0.02 0.074,0.061c0,0.04 -0.025,0.06 -0.074,0.06l-0.255,0l0,0.177l0.275,0c0.049,0 0.074,0.02 0.074,0.061c0,0.04 -0.025,0.06 -0.074,0.06l-0.354,0Z" style="fill:#b8144b;fill-rule:nonzero;"/></g><g transform="matrix(24,0,0,24,233.622,405.234)"><path d="M0.143,-0c-0.023,-0 -0.041,-0.006 -0.054,-0.019c-0.013,-0.013 -0.019,-0.031 -0.019,-0.054l-0,-0.559c-0,-0.023 0.006,-0.041 0.019,-0.054c0.013,-0.013 0.031,-0.019 0.054,-0.019l0.201,0c0.077,0 0.143,0.014 0.198,0.042c0.055,0.028 0.098,0.068 0.127,0.121c0.029,0.053 0.044,0.116 0.044,0.189c-0,0.073 -0.015,0.137 -0.044,0.19c-0.029,0.053 -0.071,0.093 -0.126,0.121c-0.055,0.028 -0.122,0.042 -0.199,0.042l-0.201,0Zm0.19,-0.126c0.15,0 0.225,-0.076 0.225,-0.227c0,-0.151 -0.075,-0.226 -0.225,-0.226l-0.107,0l-0,0.453l0.107,0Z" style="fill:#b8144b;fill-rule:nonzero;"/></g><g transform="matrix(24,0,0,24,251.934,405.234)"><path d="M0.312,0.008c-0.05,0 -0.098,-0.008 -0.143,-0.023c-0.046,-0.014 -0.083,-0.035 -0.11,-0.06c-0.01,-0.009 -0.015,-0.021 -0.015,-0.035c0,-0.009 0.003,-0.018 0.008,-0.025c0.005,-0.006 0.012,-0.01 0.019,-0.01c0.009,0 0.018,0.004 0.028,0.011c0.062,0.048 0.133,0.072 0.212,0.072c0.057,0 0.101,-0.011 0.132,-0.033c0.031,-0.022 0.046,-0.053 0.046,-0.094c0,-0.023 -0.007,-0.042 -0.022,-0.056c-0.015,-0.015 -0.034,-0.026 -0.058,-0.035c-0.024,-0.009 -0.056,-0.018 -0.097,-0.027c-0.055,-0.013 -0.099,-0.026 -0.134,-0.04c-0.035,-0.014 -0.064,-0.034 -0.085,-0.06c-0.022,-0.026 -0.033,-0.06 -0.033,-0.102c0,-0.04 0.011,-0.076 0.033,-0.107c0.021,-0.031 0.052,-0.054 0.091,-0.072c0.039,-0.017 0.083,-0.025 0.133,-0.025c0.047,0 0.09,0.007 0.131,0.021c0.04,0.015 0.074,0.035 0.101,0.062c0.011,0.011 0.016,0.022 0.016,0.035c0,0.009 -0.003,0.017 -0.008,0.024c-0.005,0.007 -0.012,0.011 -0.019,0.011c-0.007,-0 -0.017,-0.004 -0.029,-0.011c-0.033,-0.027 -0.063,-0.045 -0.091,-0.056c-0.028,-0.011 -0.062,-0.016 -0.101,-0.016c-0.055,-0 -0.098,0.011 -0.129,0.034c-0.031,0.023 -0.046,0.056 -0.046,0.097c0,0.035 0.014,0.062 0.041,0.079c0.027,0.018 0.068,0.034 0.124,0.047c0.061,0.015 0.108,0.028 0.143,0.04c0.035,0.013 0.064,0.031 0.087,0.056c0.023,0.025 0.034,0.058 0.034,0.099c0,0.039 -0.011,0.074 -0.032,0.104c-0.022,0.03 -0.053,0.053 -0.092,0.07c-0.039,0.017 -0.084,0.025 -0.135,0.025Z" style="fill:#b8144b;fill-rule:nonzero;"/></g><g transform="matrix(24,0,0,24,266.742,405.234)"><path d="M0.631,-0.71c0.013,0 0.023,0.004 0.029,0.011c0.007,0.008 0.011,0.018 0.011,0.031l0,0.631c-0,0.013 -0.004,0.023 -0.011,0.03c-0.006,0.008 -0.016,0.012 -0.029,0.012c-0.013,-0 -0.023,-0.004 -0.03,-0.012c-0.007,-0.007 -0.011,-0.017 -0.011,-0.03l0,-0.286l-0.422,-0l0,0.286c0,0.013 -0.004,0.023 -0.011,0.03c-0.007,0.008 -0.017,0.012 -0.03,0.012c-0.013,-0 -0.022,-0.004 -0.029,-0.012c-0.007,-0.007 -0.011,-0.017 -0.011,-0.03l0,-0.631c0,-0.013 0.004,-0.023 0.011,-0.031c0.007,-0.007 0.016,-0.011 0.029,-0.011c0.013,0 0.023,0.004 0.03,0.011c0.007,0.008 0.011,0.018 0.011,0.031l0,0.275l0.422,-0l0,-0.275c0,-0.013 0.004,-0.023 0.011,-0.031c0.007,-0.007 0.017,-0.011 0.03,-0.011Z" style="fill:#b8144b;fill-rule:nonzero;"/></g><g transform="matrix(24,0,0,24,284.934,405.234)"><path d="M0.528,-0.694c0.008,-0.01 0.018,-0.015 0.029,-0.015c0.009,0 0.018,0.004 0.025,0.011c0.007,0.007 0.011,0.016 0.011,0.027c-0,0.01 -0.003,0.018 -0.009,0.025l-0.243,0.307l-0,0.302c-0,0.013 -0.004,0.024 -0.012,0.031c-0.007,0.007 -0.017,0.011 -0.029,0.011c-0.012,0 -0.022,-0.004 -0.03,-0.011c-0.007,-0.007 -0.011,-0.018 -0.011,-0.031l0,-0.303l-0.243,-0.306c-0.007,-0.007 -0.01,-0.016 -0.01,-0.025c-0,-0.011 0.004,-0.02 0.011,-0.027c0.008,-0.007 0.017,-0.011 0.027,-0.011c0.011,0 0.021,0.005 0.029,0.015l0.228,0.291l0.227,-0.291Z" style="fill:#b8144b;fill-rule:nonzero;"/></g><g transform="matrix(24,0,0,24,299.358,405.234)"><path d="M0.128,0.005c-0.013,0 -0.023,-0.004 -0.03,-0.012c-0.007,-0.007 -0.011,-0.017 -0.011,-0.03l0,-0.628c0,-0.012 0.004,-0.022 0.011,-0.029c0.008,-0.007 0.018,-0.011 0.031,-0.011l0.364,0c0.012,0 0.021,0.003 0.028,0.009c0.007,0.006 0.01,0.015 0.01,0.026c0,0.011 -0.003,0.019 -0.01,0.025c-0.007,0.006 -0.016,0.009 -0.028,0.009l-0.325,0l0,0.243l0.305,0c0.012,0 0.021,0.003 0.028,0.009c0.007,0.006 0.01,0.015 0.01,0.026c0,0.011 -0.003,0.019 -0.01,0.025c-0.007,0.006 -0.016,0.009 -0.028,0.009l-0.305,-0l0,0.287c0,0.013 -0.003,0.023 -0.01,0.03c-0.007,0.008 -0.017,0.012 -0.03,0.012Z" style="fill:#b8144b;fill-rule:nonzero;"/></g><g transform="matrix(24,0,0,24,312.774,405.234)"><path d="M0.299,0.005c-0.013,0 -0.023,-0.004 -0.03,-0.012c-0.008,-0.007 -0.012,-0.017 -0.012,-0.03l0,-0.598l-0.215,0c-0.012,0 -0.021,-0.003 -0.028,-0.009c-0.007,-0.006 -0.01,-0.015 -0.01,-0.026c-0,-0.011 0.003,-0.02 0.01,-0.026c0.007,-0.006 0.016,-0.009 0.028,-0.009l0.513,0c0.012,0 0.021,0.003 0.028,0.009c0.007,0.006 0.01,0.015 0.01,0.026c-0,0.011 -0.003,0.02 -0.01,0.026c-0.007,0.006 -0.016,0.009 -0.028,0.009l-0.215,0l-0,0.598c-0,0.013 -0.004,0.023 -0.011,0.031c-0.007,0.007 -0.017,0.011 -0.03,0.011Z" style="fill:#b8144b;fill-rule:nonzero;"/></g></g></svg>