<?xml version="1.0" encoding="UTF-8" standalone="no"?><!DOCTYPE svg PUBLIC "-//W3C//DTD SVG 1.1//EN" "http://www.w3.org/Graphics/SVG/1.1/DTD/svg11.dtd"><svg width="100%" height="100%" viewBox="0 0 153 152" version="1.1" xmlns="http://www.w3.org/2000/svg" xmlns:xlink="http://www.w3.org/1999/xlink" xml:space="preserve" xmlns:serif="http://www.serif.com/" style="fill-rule:evenodd;clip-rule:evenodd;stroke-linejoin:round;stroke-miterlimit:2;"><path d="M70.342,-0c0.513,13.172 5.147,26.346 13.259,39.52c0.147,0.384 0.333,0.758 0.56,1.118c14.726,23.352 16.748,46.704 0.191,70.056c-0.244,0.343 -0.449,0.703 -0.615,1.074c-9.152,13.281 -13.413,26.562 -13.443,39.845c-39.287,-2.931 -70.294,-35.775 -70.294,-75.805c0,-40.046 31.033,-72.901 70.342,-75.808Zm12.895,0.13c5.007,0.472 9.873,1.431 14.548,2.828c1.916,10.244 5.858,20.489 11.575,30.734c0.068,0.28 0.175,0.556 0.324,0.819c15.589,27.485 17.612,54.969 0.085,82.454c-0.161,0.252 -0.282,0.518 -0.364,0.791c-6.466,10.343 -10.395,20.685 -12.045,31.028c-4.564,1.334 -9.306,2.252 -14.182,2.708c0.07,-11.157 3.74,-22.312 11.649,-33.468c0.244,-0.344 0.448,-0.703 0.614,-1.074c18.826,-27.316 16.958,-54.635 0.137,-81.955c-0.147,-0.383 -0.333,-0.758 -0.56,-1.118c-7.094,-11.248 -11.239,-22.497 -11.781,-33.747Zm21.599,5.322c5.512,2.263 10.7,5.155 15.479,8.589c1.601,4.272 3.458,8.547 5.554,12.822c0.012,0.205 0.065,0.41 0.162,0.605c15.963,32.204 17.984,64.409 0.035,96.613c-0.104,0.188 -0.167,0.388 -0.19,0.589c-2.458,4.47 -4.546,8.94 -6.278,13.414c-4.73,3.318 -9.855,6.111 -15.288,8.294c1.827,-8.668 5.41,-17.337 10.938,-26.006c0.161,-0.252 0.282,-0.518 0.364,-0.791c18.209,-29.127 16.297,-58.252 0.045,-87.377c-0.068,-0.281 -0.175,-0.556 -0.324,-0.819c-4.903,-8.644 -8.464,-17.288 -10.497,-25.933Zm20.438,12.473c16.371,13.947 26.761,34.711 26.761,57.883c-0,23.466 -10.655,44.462 -27.384,58.408c1.286,-2.867 2.724,-5.73 4.319,-8.593c0.105,-0.188 0.168,-0.388 0.191,-0.589c18.033,-32.792 16.086,-65.579 0.007,-98.368c-0.013,-0.205 -0.065,-0.41 -0.162,-0.605c-1.344,-2.712 -2.589,-5.423 -3.732,-8.136Z" style="fill:#b8144b;"/></svg>